<svg id="Слой_1" data-name="Слой 1" xmlns="http://www.w3.org/2000/svg" viewBox="0 0 657 849.2"><defs><style>.cls-1{fill:none;}.cls-1,.cls-2{stroke:#000;stroke-linecap:round;stroke-linejoin:round;stroke-width:60px;}.cls-3{fill:#fff;}</style></defs><path class="cls-1" d="M649,173s37,212,139.5,194.5L789,864" transform="translate(-619 -44.8)"/><path class="cls-1" d="M990,579.5s-72-194-104-213L885.5,863" transform="translate(-619 -44.8)"/><polygon class="cls-2" points="267 323.2 169.96 323.2 169.77 591.95 267 591.95 267 323.2"/><circle cx="218.5" cy="218.7" r="61.5"/><path d="M1276,172.73c0,70.65-80,127.93-178.76,127.93-38.88,0-74.87-8.89-104.2-24-37.34,18.81-91.21,24-91.21,24s47-25.82,52.61-51c-22.57-21.42-36-48.07-36-77,0-70.66,80-127.93,178.76-127.93S1276,102.07,1276,172.73Z" transform="translate(-619 -44.8)"/><path class="cls-3" d="M1106.25,138.64c0-7.87-7.62-11.94-17-11.94-10.92,0-21.08,6.61-26.41,17.27l-45.2-22.6c12.95-24.38,38.6-41.14,79.23-41.14,39.87,0,69.58,16.76,69.58,48.51,0,38.85-40.63,45.71-40.63,65.26h-52.31C1073.49,163.27,1106.25,154.13,1106.25,138.64Zm-40.13,95.48c0-17,13.71-30,33.52-30s33.52,13,33.52,30c0,16.76-13.71,30.48-33.52,30.48S1066.12,250.88,1066.12,234.12Z" transform="translate(-619 -44.8)"/></svg>